<mxfile host="app.diagrams.net" modified="2021-12-09T14:13:01.479Z" agent="5.0 (Windows NT 10.0; Win64; x64) AppleWebKit/537.36 (KHTML, like Gecko) Chrome/96.0.4664.55 Safari/537.36 Edg/96.0.1054.43" etag="fw1ACnXvlfZYcYfu84dN" version="15.6.0" type="github">
  <diagram id="0YBOdo9Q2gDHq1jiq8db" name="Page-1">
    <mxGraphModel dx="965" dy="621" grid="1" gridSize="10" guides="1" tooltips="1" connect="1" arrows="1" fold="1" page="1" pageScale="1" pageWidth="827" pageHeight="1169" math="0" shadow="0">
      <root>
        <mxCell id="0" />
        <mxCell id="1" parent="0" />
        <mxCell id="uHvSO9Pbkn_BKh94hZ9h-1" value="Azure Virtual network 4 tier Design&amp;nbsp;" style="text;html=1;strokeColor=none;fillColor=none;align=center;verticalAlign=middle;whiteSpace=wrap;rounded=0;" vertex="1" parent="1">
          <mxGeometry x="180" y="10" width="360" height="30" as="geometry" />
        </mxCell>
        <mxCell id="uHvSO9Pbkn_BKh94hZ9h-2" value="" style="whiteSpace=wrap;html=1;aspect=fixed;" vertex="1" parent="1">
          <mxGeometry x="120" y="80" width="560" height="560" as="geometry" />
        </mxCell>
        <mxCell id="uHvSO9Pbkn_BKh94hZ9h-3" value="Resource group" style="text;html=1;strokeColor=none;fillColor=none;align=center;verticalAlign=middle;whiteSpace=wrap;rounded=0;" vertex="1" parent="1">
          <mxGeometry x="130" y="100" width="100" height="30" as="geometry" />
        </mxCell>
        <mxCell id="uHvSO9Pbkn_BKh94hZ9h-4" value="" style="whiteSpace=wrap;html=1;aspect=fixed;" vertex="1" parent="1">
          <mxGeometry x="150" y="130" width="500" height="500" as="geometry" />
        </mxCell>
        <mxCell id="uHvSO9Pbkn_BKh94hZ9h-5" value="" style="rounded=0;whiteSpace=wrap;html=1;fillColor=#d5e8d4;strokeColor=#82b366;" vertex="1" parent="1">
          <mxGeometry x="170" y="170" width="460" height="440" as="geometry" />
        </mxCell>
        <mxCell id="uHvSO9Pbkn_BKh94hZ9h-6" value="" style="whiteSpace=wrap;html=1;aspect=fixed;fillColor=#fff2cc;strokeColor=#d6b656;" vertex="1" parent="1">
          <mxGeometry x="200" y="220" width="120" height="120" as="geometry" />
        </mxCell>
        <mxCell id="uHvSO9Pbkn_BKh94hZ9h-7" value="" style="whiteSpace=wrap;html=1;aspect=fixed;fillColor=#fff2cc;strokeColor=#d6b656;" vertex="1" parent="1">
          <mxGeometry x="450" y="220" width="120" height="120" as="geometry" />
        </mxCell>
        <mxCell id="uHvSO9Pbkn_BKh94hZ9h-8" value="" style="whiteSpace=wrap;html=1;aspect=fixed;fillColor=#fff2cc;strokeColor=#d6b656;" vertex="1" parent="1">
          <mxGeometry x="455" y="390" width="110" height="110" as="geometry" />
        </mxCell>
        <mxCell id="uHvSO9Pbkn_BKh94hZ9h-9" value="" style="whiteSpace=wrap;html=1;aspect=fixed;fillColor=#fff2cc;strokeColor=#d6b656;" vertex="1" parent="1">
          <mxGeometry x="200" y="390" width="130" height="130" as="geometry" />
        </mxCell>
        <mxCell id="uHvSO9Pbkn_BKh94hZ9h-15" style="edgeStyle=orthogonalEdgeStyle;rounded=0;orthogonalLoop=1;jettySize=auto;html=1;entryX=0.673;entryY=0.462;entryDx=0;entryDy=0;entryPerimeter=0;" edge="1" parent="1" target="uHvSO9Pbkn_BKh94hZ9h-9">
          <mxGeometry relative="1" as="geometry">
            <mxPoint x="292.5" y="450" as="sourcePoint" />
          </mxGeometry>
        </mxCell>
        <mxCell id="uHvSO9Pbkn_BKh94hZ9h-16" value="Vnet" style="text;html=1;strokeColor=none;fillColor=none;align=center;verticalAlign=middle;whiteSpace=wrap;rounded=0;" vertex="1" parent="1">
          <mxGeometry x="170" y="140" width="120" height="30" as="geometry" />
        </mxCell>
        <mxCell id="uHvSO9Pbkn_BKh94hZ9h-17" value="Web tiier Subnet" style="text;html=1;strokeColor=none;fillColor=none;align=center;verticalAlign=middle;whiteSpace=wrap;rounded=0;" vertex="1" parent="1">
          <mxGeometry x="207.5" y="280" width="112.5" height="30" as="geometry" />
        </mxCell>
        <mxCell id="uHvSO9Pbkn_BKh94hZ9h-18" value="App tier&lt;br&gt;subnet" style="text;html=1;strokeColor=none;fillColor=none;align=center;verticalAlign=middle;whiteSpace=wrap;rounded=0;" vertex="1" parent="1">
          <mxGeometry x="470" y="290" width="80" height="30" as="geometry" />
        </mxCell>
        <mxCell id="uHvSO9Pbkn_BKh94hZ9h-19" value="DB tier subnet" style="text;html=1;strokeColor=none;fillColor=none;align=center;verticalAlign=middle;whiteSpace=wrap;rounded=0;" vertex="1" parent="1">
          <mxGeometry x="240" y="470" width="60" height="30" as="geometry" />
        </mxCell>
        <mxCell id="uHvSO9Pbkn_BKh94hZ9h-21" value="Bastion tier subnet&amp;nbsp;" style="text;html=1;strokeColor=none;fillColor=none;align=center;verticalAlign=middle;whiteSpace=wrap;rounded=0;" vertex="1" parent="1">
          <mxGeometry x="470" y="460" width="60" height="30" as="geometry" />
        </mxCell>
        <mxCell id="uHvSO9Pbkn_BKh94hZ9h-26" value="Web NSG" style="whiteSpace=wrap;html=1;aspect=fixed;" vertex="1" parent="1">
          <mxGeometry x="260" y="230" width="50" height="50" as="geometry" />
        </mxCell>
        <mxCell id="uHvSO9Pbkn_BKh94hZ9h-27" value="App&lt;br&gt;NSG" style="whiteSpace=wrap;html=1;aspect=fixed;" vertex="1" parent="1">
          <mxGeometry x="510" y="230" width="50" height="50" as="geometry" />
        </mxCell>
        <mxCell id="uHvSO9Pbkn_BKh94hZ9h-28" value="DB NSG" style="whiteSpace=wrap;html=1;aspect=fixed;" vertex="1" parent="1">
          <mxGeometry x="270" y="400" width="50" height="50" as="geometry" />
        </mxCell>
        <mxCell id="uHvSO9Pbkn_BKh94hZ9h-29" value="Bastion&amp;nbsp;&lt;br&gt;NSG" style="whiteSpace=wrap;html=1;aspect=fixed;" vertex="1" parent="1">
          <mxGeometry x="510" y="400" width="45" height="45" as="geometry" />
        </mxCell>
      </root>
    </mxGraphModel>
  </diagram>
</mxfile>
